inDegrees=no
nColumns=24
nRows=28
DataType=double
version=3
OpenSimVersion=4.5
endheader
time	pelvis_tilt	pelvis_list	pelvis_rotation	pelvis_tz	pelvis_ty	pelvis_tx	hip_flexion_r	hip_adduction_r	hip_rotation_r	knee_angle_r	ankle_angle_r	subtalar_angle_r	mtp_angle_r	hip_flexion_l	hip_adduction_l	hip_rotation_l	knee_angle_l	ankle_angle_l	subtalar_angle_l	mtp_angle_l	lumbar_extension	lumbar_bending	lumbar_rotation
0	-0.0793224981538288	-0.08445506099739784	-0.1274988676488531	0	0.9295784	-0	-0.106629942413211	0.08325400300925907	-0.1837433831857757	-0.3382032377371795	0.3094488534875713	0.04575471164331436	0	0.5227968832008054	-0.1505402822564022	-0.4154690878158783	-0.1458721466228006	-0.04540404689678774	0.01579621514344436	0	-0.04011655552177595	0.05388044854674014	0.2488923079708499
0.01000000000000001	-0.0789797013853427	-0.08090137462754672	-0.1290896552015858	-0.001254389999999994	0.92925504	0.01323445000000001	-0.109867837273471	0.07186503133376235	-0.1886436823419446	-0.3587011929091104	0.2949046967088031	0.04940798195011255	0	0.5176197699383482	-0.1470862681617897	-0.4216615905275132	-0.1640470819993623	-0.05936140303708434	0.01088531834805729	0	-0.03646515341540909	0.05038284433046025	0.2456058793438163
0.02000000000000002	-0.08294573448782167	-0.06755786419007634	-0.1325206412541011	-0.002653439999999979	0.92915294	0.02647876	-0.1048775351529681	0.04947747729573554	-0.1905032149446152	-0.3823487334699406	0.2747944650339394	0.06555216216479655	0	0.514474461304248	-0.1335649226703105	-0.4284726330391331	-0.1659985885666911	-0.09376687158559928	-0.003529969950994729	0	-0.02565121903375837	0.03566393436594109	0.2468461940860876
0.03000000000000003	-0.08569567050619356	-0.05437287307674878	-0.1317696676611367	-0.004818139999999999	0.9294307000000001	0.03915973	-0.09622093454093258	0.0257863288108796	-0.1981815625251652	-0.4141650111345768	0.2501828349630365	0.08441800218278933	0	0.511952857772054	-0.1170380664507561	-0.4193639394418876	-0.1680792561309185	-0.1179135557176147	-0.04047737965534551	0	-0.01845040872091854	0.02239569442819104	0.2418431997567313
0.04000000000000004	-0.08696760214675202	-0.0476366049645135	-0.1298298088531259	-0.00651665999999998	0.92995008	0.05236981	-0.0911468810509435	0.01061045447267526	-0.2031921029600754	-0.4422510838553881	0.2199387806063916	0.08919883302806052	0	0.5085060253582475	-0.1087269806422234	-0.4137075791871851	-0.1802954482474807	-0.1384035684197186	-0.04336786096840951	0	-0.01298074441643964	0.01578145314863099	0.2364269823208704
0.04999999999999982	-0.08866193650357299	-0.03303703195295846	-0.1254896642205925	-0.008578530000000001	0.9305018900000001	0.06588637999999999	-0.08206535140911023	-0.01425683823384386	-0.2122716509550759	-0.4761487509524304	0.1930561944353053	0.110876641595381	0	0.5042068655930199	-0.09065457951949196	-0.4016214317277219	-0.1928788955123072	-0.1598686902917264	-0.06718000248379778	0	-0.005139299657015157	-0.0008195249353275438	0.2288423315194832
0.05999999999999983	-0.08660218458115701	-0.02453979339618186	-0.1219280563705879	-0.01018772999999998	0.93166784	0.07924597	-0.0771198515414402	-0.03068682937804424	-0.2158176765389256	-0.5071315502979682	0.150328268734582	0.1132508749360573	0	0.4967894007533459	-0.08153618712759318	-0.407163619524076	-0.2103796098497577	-0.1418716695903228	-0.07964355121406591	0	-0.003068461612601978	-0.011475114495124	0.2235431460894172
0.06999999999999984	-0.08352223131901733	-0.01407986341352644	-0.1179040865391931	-0.01190442999999999	0.93297006	0.09269046	-0.07014288406849178	-0.05039129800722521	-0.2204664987080905	-0.5425053837150914	0.1016878455885164	0.1172199723448477	0	0.4891244079086334	-0.07065841453602396	-0.4123378070911081	-0.2289816595828736	-0.1221837793201077	-0.09636052894156681	0	-0.002586869945039455	-0.02422925338999926	0.217997577590302
0.07999999999999985	-0.08004841754203913	-0.003129119804013007	-0.1138162980461783	-0.01404754	0.93426381	0.10580097	-0.05859237169874747	-0.07282454144894365	-0.2256720173786567	-0.5842568170724785	0.04410944770239048	0.1196298077842708	0	0.4828676086636184	-0.05831293122100087	-0.4102297202297989	-0.2524192513463888	-0.1043672947783987	-0.1062513850363094	0	-0.003816971893192677	-0.03650634999254024	0.2123957977955666
0.08999999999999986	-0.07665241834703081	0.008728049945293883	-0.1078552324435608	-0.01619266	0.93535869	0.11883561	-0.04446652182152919	-0.09572599389711911	-0.2294589142817778	-0.6294944017955939	-0.01409653532710179	0.1230213033124123	0	0.4762691818124107	-0.04407525216448785	-0.4062434674561918	-0.275443324344624	-0.08065251034668056	-0.1132649466531515	0	-0.004803103340921721	-0.0509363592711682	0.2062427287039854
0.09999999999999987	-0.07439009614513822	0.02061336083650498	-0.101046665283314	-0.01837338999999999	0.93646354	0.13154191	-0.02599498711174573	-0.1187413582259857	-0.2320053404101926	-0.6786923804941187	-0.06327302204121757	0.1260990713696518	0	0.4678161975940981	-0.02931142039208208	-0.4077406936171591	-0.2917939667123763	-0.0576936629205862	-0.1167853572613001	0	-0.005331280289680927	-0.06466430427312785	0.1978078800273973
0.1099999999999999	-0.07393005129535259	0.03240318810310303	-0.09362360255544422	-0.02062359999999999	0.93738703	0.14382179	-0.003629700856980488	-0.1408632979355343	-0.2314301704713234	-0.7299317544052402	-0.1069051183534632	0.1215805045188266	0	0.4591665802189328	-0.01435252643368323	-0.4125373423814411	-0.3033514513234166	-0.03675701330704705	-0.1116060733328523	0	-0.005349739415448793	-0.07839065613854626	0.1888887679332279
0.1199999999999999	-0.07472587224518812	0.04359848566592087	-0.08587582411998532	-0.02242843	0.93824766	0.1557378	0.02278788963333471	-0.1600536028645204	-0.2280675088296224	-0.7826758026699119	-0.149460104789127	0.1089496719138743	0	0.4481977216862288	0.0004569767655228721	-0.4202976296797137	-0.3072024625475438	-0.01652834707980141	-0.09966764844688283	0	-0.004668534615868605	-0.09225131894388729	0.1799147235207141
0.1299999999999999	-0.0802329576838679	0.05464329772775568	-0.08197152190384918	-0.02369605	0.93880637	0.16674004	0.06038552157598304	-0.1753851640626611	-0.2132487881975706	-0.837997364344036	-0.1896853871674523	0.08808013823858889	0	0.4399376878055144	0.01421595354705005	-0.4294156234384113	-0.3037021712223476	-0.003744558531593282	-0.08581760509737556	0	-0.0001197922440069576	-0.106098607814769	0.1749390118291591
0.1399999999999999	-0.08155316213595866	0.06102083166805921	-0.07555297702379167	-0.02508242999999999	0.93979338	0.17789087	0.09181234751852675	-0.1854191696191913	-0.2054444765397128	-0.8869943336471414	-0.227285129736765	0.06872301613596066	0	0.4266314490828887	0.02449019442487228	-0.4364625356792651	-0.3012575946550976	0.01411005517108651	-0.07709084783446349	0	-0.001054452012232512	-0.1138004691691336	0.1647965281254979
0.1499999999999999	-0.08410871434381208	0.06987715842521294	-0.07285963307344388	-0.02619035	0.94068469	0.18868736	0.1283677388195871	-0.196941798085207	-0.1925139813741686	-0.9357723276591066	-0.249054526550979	0.03677554137332036	0	0.4128297426270154	0.03733460297039116	-0.4429635539595898	-0.2933183510691694	0.02739945687695115	-0.06819771618794042	0	-0.0008464283130824105	-0.1245255568670798	0.158429790067301
0.1599999999999999	-0.08564830045740553	0.07809938061084443	-0.0717388897909027	-0.02735042999999998	0.94174663	0.19929346	0.1642274434515988	-0.2066768058770574	-0.1791697269369735	-0.9809445457874776	-0.2489219043916406	-0.007903969434547927	0	0.3966270148189745	0.05024998532994239	-0.4488183316212395	-0.2816970113185169	0.03836341487418139	-0.06184947896888051	0	-0.00251931278755081	-0.1333576344529072	0.1520224561743015
0.1699999999999999	-0.08541306801887197	0.08248005423672998	-0.07098032970919629	-0.02840613	0.94319094	0.2100163	0.1975974762227463	-0.2114224346530464	-0.168153162621693	-1.022103883701041	-0.2262632136288494	-0.04797372115990484	0	0.3780446202857629	0.05972866272320478	-0.4503052919300795	-0.2703413358127593	0.04482805124264947	-0.05790440758804017	0	-0.005602366923495788	-0.1376243045650431	0.1468311209219015
0.1799999999999997	-0.0845388755489743	0.08656785393919721	-0.07214270196496418	-0.02939909999999998	0.9448132300000001	0.22048834	0.2317255822825221	-0.2143549096351109	-0.1558284663525941	-1.057825917808853	-0.2028847436720151	-0.08944463734592975	0	0.3590645893089316	0.06922924295138215	-0.4498847892297977	-0.2585644467341155	0.0544834550909152	-0.05719527315710492	0	-0.009441013362537281	-0.1413553364458676	0.1420196440148275
0.1899999999999999	-0.08120154027088489	0.08736584033069579	-0.07307827033691347	-0.03031217	0.94692382	0.23139027	0.2604641032345589	-0.2120836491495059	-0.1443739532003619	-1.085005478035352	-0.1757705694134157	-0.1255111392342262	0	0.3365740624158334	0.07588430329335613	-0.4454628012203292	-0.2468907724131774	0.06251930055654627	-0.05902293761843039	0	-0.0157270489669183	-0.1406228139048239	0.1366037908291815
0.1999999999999997	-0.07743608216482595	0.08756406245076176	-0.07353524780165167	-0.03124200999999999	0.94887327	0.2418982	0.289276932626697	-0.2087842139798206	-0.1340637910030726	-1.107736713059436	-0.1496815286026751	-0.1508131465080602	0	0.3136711573301216	0.08212833859648547	-0.4410947690174886	-0.2345132410133633	0.07078909117684512	-0.06045459193393318	0	-0.02291864202144542	-0.1398152673386858	0.1299413236589279
0.21	-0.07239563399388939	0.08692873807463675	-0.07389418403286747	-0.03231019999999998	0.95101598	0.25253684	0.3146201918045994	-0.2054777744547812	-0.1275718182406623	-1.122576601742788	-0.1206869587736586	-0.1729495375438154	0	0.2878811235343058	0.0884324360896966	-0.4361361973318528	-0.2189063033366393	0.07598233791384189	-0.06251372422958615	0	-0.03141222957947636	-0.1366309231941342	0.1240365828058472
0.2199999999999998	-0.06688560362112074	0.08556853547403771	-0.0729497583364165	-0.03344243	0.9530976600000001	0.26282692	0.3392996249498826	-0.2008265250562255	-0.1210926094201376	-1.133500933784681	-0.09739282347534649	-0.1844768783988114	0	0.2618957947255748	0.09386849215956618	-0.4322742095575268	-0.2029695911082715	0.07879423333387389	-0.06370052002114134	0	-0.04136861737711069	-0.1336162524545458	0.1151978881532268
0.23	-0.06211559914247885	0.08065369809757315	-0.07002554007094673	-0.03447436999999998	0.95522347	0.27336057	0.3610020396925964	-0.1917837396293914	-0.1181546287969476	-1.136718524008022	-0.0705796474778156	-0.1893638477773512	0	0.2352498532099103	0.09583194044416997	-0.4257383579959909	-0.1850834358153497	0.08326076197132035	-0.06208448231667379	0	-0.04954699061824982	-0.1267939831125125	0.1071268280519428
0.2399999999999998	-0.05359561949597367	0.07727288673778673	-0.06806264614787011	-0.03553615999999998	0.95749549	0.28368223	0.3786044562854228	-0.1853253004014984	-0.1180051760785664	-1.13319768300168	-0.06745080759600429	-0.2005956537754363	0	0.2054234287415984	0.09943111566706601	-0.4175544642784276	-0.1680684982704751	0.085348870048682	-0.06329958263630735	0	-0.06314800393236429	-0.120922090228619	0.09749869863843096
0.25	-0.04930633510658778	0.07287412783872133	-0.06617342459289474	-0.03655186999999999	0.95901811	0.29403049	0.3972765602185881	-0.1771981534465699	-0.1175207557558852	-1.123418226037104	-0.03939948228620509	-0.2039646546275135	0	0.1804802506899989	0.1008409839101808	-0.4122674245946263	-0.1522283142689157	0.08922672042244766	-0.06248030606133236	0	-0.07007671025896828	-0.1146255367465667	0.09044157726865056
0.2599999999999998	-0.04176835816835295	0.06847992466802173	-0.06307567773274284	-0.03780735999999998	0.96071157	0.30434102	0.410815172950489	-0.1705511488462914	-0.1217873005533809	-1.107450805613212	-0.02115487511123302	-0.2099643719351646	0	0.1520257279685173	0.1028035804741096	-0.4047240532735098	-0.1361811588272123	0.09403347237417066	-0.06069012481462151	0	-0.08193830330780398	-0.1067057446806189	0.08123609888119671
0.27	-0.03725954992859103	0.06441521479391227	-0.05940148297798205	-0.03881252999999998	0.96197457	0.31468232	0.4268683778779128	-0.1637983544295289	-0.127467935370919	-1.087365119899883	0.009476980584163604	-0.2147348388408045	0	0.128105125061159	0.1036288812275308	-0.3983408665343103	-0.1231443434396243	0.1014148303658781	-0.05741770228030222	0	-0.08932050219914504	-0.1002877817324748	0.07293743981693816
